<?xml version="1.0" encoding="utf-8"?>
<!-- Generator: Adobe Illustrator 22.0.1, SVG Export Plug-In . SVG Version: 6.00 Build 0)  -->
<svg version="1.1" id="Ebene_1" xmlns="http://www.w3.org/2000/svg" xmlns:xlink="http://www.w3.org/1999/xlink" x="0px" y="0px"
	 viewBox="0 0 330 60" style="enable-background:new 0 0 330 60;" xml:space="preserve">
<style type="text/css">
	.st0{fill:#E7E7BD;}
</style>
<path class="st0" d="M124.1,46.3c-1.7-0.4-3.7-1.4-3.7-4.7V28.3c0-5.7-2.9-8.8-8.7-8.8c-4.4,0-7.2,1.9-9.6,3.7
	c-1.3-2.4-3.8-3.7-7.6-3.7c-3.4,0-6.1,1.2-8.6,3.1v-2.3H83c-1,0.8-2.6,1.9-4.4,2.8c-1.5,0.8-3,1.5-4.4,2v2.6l1.8,0.2
	c0.8,0.1,2.5,0.8,2.5,4.3V42c0,3.1-2.4,3.8-4.4,4.3v2.6h15.5v-2.5c-1.6-0.4-3.7-0.9-3.7-4V26.2c1.2-1.1,3.4-2.6,5.4-2.6
	c3.1,0,4.8,1.8,4.8,5.1v13.4c0,2.9-1.7,3.6-3.7,4.3v2.5h14.5v-2.6c-1.6-0.4-3.6-1.4-3.6-4.7V28.3c0-0.7-0.1-1.5-0.2-2.1
	c1.1-0.9,3.2-2.6,5.4-2.6c3.1,0,4.8,1.8,4.8,5.1v13.4c0,2.9-1.7,3.6-3.7,4.3v2.5h14.6v-2.6H124.1z M65.1,34.6
	c0,7.9-3.5,12.3-7.7,12.3c-4.1,0-7.5-2.8-7.5-12c0-9.3,3.4-12.7,7.8-12.7S65.1,26.7,65.1,34.6 M73,35.1c0-9-5.7-15.8-15.1-15.8
	c-9.2,0-15.3,6.9-15.3,16.3c0,8.5,5.5,14.4,15.2,14.4C66.1,49.9,73,43.8,73,35.1 M51,2.2h-2.8l-1.8,1.1H36c-5.8,0-13-0.4-17.1-0.4
	C7.3,3-0.2,8.6-0.2,17.9c0,6.6,4.5,11.2,11.3,11.2c6.1,0,11.4-4.7,11.4-10.3c0-2.1-1.4-4.2-3.6-4.2c-3.3,0-5.1,3-5.4,5.7
	c-0.3,2.3-0.2,4.9-3.3,4.9c-3.3,0-6.1-2.9-6.1-7.5c0-5.8,4.6-10.9,14.8-10.9c6,0,8.9,0.2,8.9,3.9v30.9c0,2.8-3.2,4.1-6,4.6v2.7h20.3
	v-2.7c-3-0.5-5.8-1.6-5.8-4.6V10.3c0-2.7,1.3-3.6,3.4-3.6c6.1,0,10.8,4.8,13.6,8.6l2.3-1.6L51,2.2z"/>
<path class="st0" d="M329.8,45.9c-1.5-0.4-3.2-1.3-3.2-4.4V29.1c0-5.3-2.5-8.2-7.8-8.2c-3.1,0-5.8,1.1-8.2,2.9v-18H308
	c-0.9,0.8-2.3,1.7-3.9,2.6c-1.3,0.8-2.6,1.4-3.9,2v2.3l1.6,0.2c0.7,0.1,2.2,0.7,2.2,3.9v25c0,2.9-2.1,3.5-3.9,4v2.4h13.8v-2.3
	c-1.4-0.4-3.3-0.9-3.3-3.7V27.1c1.6-1.3,3.5-2.4,5.3-2.4c2.8,0,4.3,1.6,4.3,4.7V42c0,2.7-1.5,3.3-3.3,4v2.3h12.9V45.9z M297.2,39.3
	c-0.8,2.9-3.6,6.9-7.6,6.9c-3.5,0-6.1-3.2-6.1-10.9c0-9.2,3.3-11.8,5.5-11.8s3.5,2.5,3.9,4.1c0.5,1.6,1.4,2.7,3.3,2.7
	c1.7,0,2.8-1.3,2.8-3.1c0-2.8-3.6-6.4-9.8-6.4c-7.3,0-12.7,4.8-12.7,14.6c0,9.7,6.9,13.7,12.6,13.7c5.9,0,9.4-4,10.9-8.8L297.2,39.3
	z M274.3,40c0-5.7-4.8-7.3-9.5-8.4c-4.2-1.1-8.3-1.8-8.3-4.8c0-1.9,2.2-2.9,5-2.9c3.6,0,6.4,2.3,8.5,5.3l2.4-1.2l-2.3-6.9h-1.8
	l-1.6,1.4c-0.8-0.5-3-1.6-5.7-1.6c-5.7,0-10.3,3.1-10.3,8c0,5,3.9,6.7,8.2,8c4.9,1.4,10.2,2,10.2,5.6c0,2.1-2.5,3.9-6,3.9
	c-5.6,0-9.6-4.8-10.9-6.7l-2.4,1.1l3.1,8h2.4l1.4-1.2c0.6,0.5,2.7,1.9,6.8,1.9C269.3,49.3,274.3,45.5,274.3,40 M248.2,46
	c-1.4-0.4-3.3-0.9-3.3-3.7V21.7h-2.6c-0.9,0.8-2.3,1.7-3.9,2.6c-1.3,0.7-2.6,1.4-3.9,1.9v2.4l1.6,0.2c0.7,0.1,2.2,0.8,2.2,4v9.1
	c0,2.9-2.1,3.5-3.9,4v2.3h13.8L248.2,46L248.2,46z M245.4,9.8c0-2.2-1.7-4-3.8-4s-3.8,1.8-3.8,4s1.7,4,3.8,4
	C243.7,13.7,245.4,11.9,245.4,9.8 M231.9,5.8h-14.6l-15.2,28.4l-3.8-28.4h-28.9c-10.2,0-14.2,4.4-14.2,9.6c0,4.2,3.3,8.2,8.5,8.2
	c3.8,0,6.5-2.4,6.5-4.9c0-1.7-1-3.1-2.8-3.1c-2.7,0-4.1,2.7-5.8,2.7c-1.2,0-2.3-1.4-2.3-3c0-3.1,2.1-6,9.4-6h15.9
	c1.8,0,2.3,0.8,2.3,1.8c0,7.2-16.6,42.7-36.3,42.7c-9.8,0-15.1-5.8-15.1-13.7c0-4.8,2.9-7.2,4.6-7.2c2.7,0,3.8,3.2,6.7,3.2
	c1.8,0,3.5-1.5,3.5-3.6c0-2.7-3.1-5.4-7.2-5.4c-6.5,0-11.3,6.2-11.3,13.1c0,8.2,6.2,17.2,18.1,17.2c18.3,0,31.4-21.7,34.7-29.7
	c0,0,3.5-6.9,6.8-16.4h0.6l4.2,37l2.6,0.1L219.1,11v29.7c0,3-3.4,4.8-5.2,5v2.6h17.5v-2.5c-2.2-0.4-5.2-1.7-5.2-5.1V12.9
	c0-3.4,3.7-4.4,5.7-4.7V5.8z"/>
</svg>
